<?xml version="1.0"?>
<svg xmlns="http://www.w3.org/2000/svg" xmlns:xlink="http://www.w3.org/1999/xlink" version="1.1" id="Layer_1" x="0px" y="0px" viewBox="0 0 512 512" style="enable-background:new 0 0 512 512;" xml:space="preserve" width="512px" height="512px"><g><g>
	<g>
		<path d="M288.063,32.063c-13.535,0-24.548-11.012-24.548-24.548C263.515,3.364,260.15,0,256,0s-7.515,3.364-7.515,7.515    c0,13.536-11.013,24.548-24.548,24.548c-4.15,0-7.515,3.364-7.515,7.515c0,4.151,3.365,7.515,7.515,7.515    c13.535,0,24.548,11.011,24.548,24.548c0,4.151,3.365,7.515,7.515,7.515s7.515-3.364,7.515-7.515    c0-13.536,11.013-24.548,24.548-24.548c4.15,0,7.515-3.364,7.515-7.515C295.577,35.426,292.213,32.063,288.063,32.063z     M256,48.462c-2.472-3.409-5.475-6.413-8.884-8.884c3.41-2.472,6.413-5.476,8.884-8.884c2.472,3.409,5.475,6.413,8.884,8.884    C261.476,42.049,258.472,45.053,256,48.462z" data-original="#000000" class="active-path" data-old_color="#000000" fill="#FFFFFF"/>
	</g>
</g><g>
	<g>
		<path d="M456.391,144.282c-13.535,0-24.548-11.012-24.548-24.548c0-4.151-3.365-7.515-7.515-7.515    c-4.15,0-7.515,3.364-7.515,7.515c0,13.536-11.013,24.548-24.548,24.548c-4.15,0-7.515,3.364-7.515,7.515    c0,4.151,3.365,7.515,7.515,7.515c13.535,0,24.548,11.012,24.548,24.548c0,4.151,3.365,7.515,7.515,7.515    c4.15,0,7.515-3.364,7.515-7.515c0-13.536,11.013-24.548,24.548-24.548c4.15,0,7.515-3.364,7.515-7.515    C463.906,147.645,460.542,144.282,456.391,144.282z M424.329,160.681c-2.472-3.409-5.475-6.413-8.884-8.884    c3.41-2.472,6.413-5.476,8.884-8.884c2.472,3.409,5.475,6.413,8.884,8.884C429.804,154.268,426.801,157.272,424.329,160.681z" data-original="#000000" class="active-path" data-old_color="#000000" fill="#FFFFFF"/>
	</g>
</g><g>
	<g>
		<path d="M119.734,104.203c-13.535,0-24.548-11.011-24.548-24.548c0-4.151-3.365-7.515-7.515-7.515    c-4.15,0-7.515,3.364-7.515,7.515c0,13.536-11.013,24.548-24.548,24.548c-4.15,0-7.515,3.364-7.515,7.515s3.365,7.515,7.515,7.515    c13.535,0,24.548,11.012,24.548,24.548c0,4.151,3.365,7.515,7.515,7.515c4.15,0,7.515-3.364,7.515-7.515    c0-13.536,11.013-24.548,24.548-24.548c4.15,0,7.515-3.364,7.515-7.515S123.884,104.203,119.734,104.203z M87.671,120.603    c-2.472-3.409-5.475-6.413-8.884-8.884c3.41-2.472,6.413-5.476,8.884-8.884c2.472,3.409,5.475,6.413,8.884,8.884    C93.147,114.19,90.143,117.194,87.671,120.603z" data-original="#000000" class="active-path" data-old_color="#000000" fill="#FFFFFF"/>
	</g>
</g><g>
	<g>
		<path d="M23.546,473.257c-4.15,0-7.515,3.364-7.515,7.515v23.713c0,4.151,3.365,7.515,7.515,7.515c4.15,0,7.515-3.364,7.515-7.515    v-23.713C31.061,476.621,27.696,473.257,23.546,473.257z" data-original="#000000" class="active-path" data-old_color="#000000" fill="#FFFFFF"/>
	</g>
</g><g>
	<g>
		<path d="M136.434,251.611c-0.367-0.341-0.759-0.636-1.17-0.89v-10.753c0-26.242-21.351-47.593-47.593-47.593    c-26.242,0-47.593,21.351-47.593,47.593v10.75c-0.405,0.252-0.794,0.543-1.156,0.88c-14.547,13.514-22.891,32.648-22.891,52.496    v145.952c0,4.151,3.365,7.515,7.515,7.515c4.15,0,7.515-3.364,7.515-7.515V304.094c0-10.914,3.201-21.552,9.018-30.614v70.692    c0,21.823,17.755,39.577,39.577,39.577h16.031c21.823,0,39.577-17.755,39.577-39.577V273.48c5.816,9.063,9.018,19.7,9.018,30.614    v200.391c0,4.151,3.365,7.515,7.515,7.515c4.15,0,7.515-3.364,7.515-7.515V304.094    C159.311,284.254,150.973,265.125,136.434,251.611z M120.235,344.172c0,13.536-11.013,24.548-24.548,24.548H79.656    c-13.535,0-24.548-11.011-24.548-24.548V239.969c0-17.956,14.609-32.564,32.564-32.564c17.955,0,32.564,14.608,32.564,32.564    V344.172z" data-original="#000000" class="active-path" data-old_color="#000000" fill="#FFFFFF"/>
	</g>
</g><g>
	<g>
		<path d="M88.673,216.423h-1.002c-4.15,0-7.515,3.364-7.515,7.515s3.365,7.515,7.515,7.515h1.002c4.15,0,7.515-3.364,7.515-7.515    S92.823,216.423,88.673,216.423z" data-original="#000000" class="active-path" data-old_color="#000000" fill="#FFFFFF"/>
	</g>
</g><g>
	<g>
		<path d="M104.705,240.47h-1.002c-4.15,0-7.515,3.364-7.515,7.515c0,4.151,3.365,7.515,7.515,7.515h1.002    c4.15,0,7.515-3.364,7.515-7.515C112.219,243.833,108.855,240.47,104.705,240.47z" data-original="#000000" class="active-path" data-old_color="#000000" fill="#FFFFFF"/>
	</g>
</g><g>
	<g>
		<path d="M72.642,240.47H71.64c-4.15,0-7.515,3.364-7.515,7.515c0,4.151,3.365,7.515,7.515,7.515h1.002    c4.15,0,7.515-3.364,7.515-7.515C80.157,243.833,76.792,240.47,72.642,240.47z" data-original="#000000" class="active-path" data-old_color="#000000" fill="#FFFFFF"/>
	</g>
</g><g>
	<g>
		<path d="M104.705,272.532h-1.002c-4.15,0-7.515,3.364-7.515,7.515c0,4.151,3.365,7.515,7.515,7.515h1.002    c4.15,0,7.515-3.364,7.515-7.515C112.219,275.896,108.855,272.532,104.705,272.532z" data-original="#000000" class="active-path" data-old_color="#000000" fill="#FFFFFF"/>
	</g>
</g><g>
	<g>
		<path d="M72.642,272.532H71.64c-4.15,0-7.515,3.364-7.515,7.515c0,4.151,3.365,7.515,7.515,7.515h1.002    c4.15,0,7.515-3.364,7.515-7.515C80.157,275.896,76.792,272.532,72.642,272.532z" data-original="#000000" class="active-path" data-old_color="#000000" fill="#FFFFFF"/>
	</g>
</g><g>
	<g>
		<path d="M104.705,304.595h-1.002c-4.15,0-7.515,3.364-7.515,7.515c0,4.151,3.365,7.515,7.515,7.515h1.002    c4.15,0,7.515-3.364,7.515-7.515C112.219,307.958,108.855,304.595,104.705,304.595z" data-original="#000000" class="active-path" data-old_color="#000000" fill="#FFFFFF"/>
	</g>
</g><g>
	<g>
		<path d="M72.642,304.595H71.64c-4.15,0-7.515,3.364-7.515,7.515c0,4.151,3.365,7.515,7.515,7.515h1.002    c4.15,0,7.515-3.364,7.515-7.515C80.157,307.958,76.792,304.595,72.642,304.595z" data-original="#000000" class="active-path" data-old_color="#000000" fill="#FFFFFF"/>
	</g>
</g><g>
	<g>
		<path d="M104.705,336.658h-1.002c-4.15,0-7.515,3.364-7.515,7.515c0,4.151,3.365,7.515,7.515,7.515h1.002    c4.15,0,7.515-3.364,7.515-7.515C112.219,340.021,108.855,336.658,104.705,336.658z" data-original="#000000" class="active-path" data-old_color="#000000" fill="#FFFFFF"/>
	</g>
</g><g>
	<g>
		<path d="M72.642,336.658H71.64c-4.15,0-7.515,3.364-7.515,7.515c0,4.151,3.365,7.515,7.515,7.515h1.002    c4.15,0,7.515-3.364,7.515-7.515C80.157,340.021,76.792,336.658,72.642,336.658z" data-original="#000000" class="active-path" data-old_color="#000000" fill="#FFFFFF"/>
	</g>
</g><g>
	<g>
		<path d="M320.125,336.658c-4.15,0-7.515,3.364-7.515,7.515v160.313c0,4.151,3.365,7.515,7.515,7.515s7.515-3.364,7.515-7.515    V344.172C327.64,340.021,324.275,336.658,320.125,336.658z" data-original="#000000" class="active-path" data-old_color="#000000" fill="#FFFFFF"/>
	</g>
</g><g>
	<g>
		<path d="M305.335,163.976c-0.532-0.506-1.121-0.914-1.742-1.233v-2.931c0-26.242-21.351-47.593-47.593-47.593    s-47.593,21.351-47.593,47.593v2.735c-0.411,0.253-0.804,0.549-1.169,0.891c-14.539,13.513-22.878,32.643-22.878,52.483v288.564    c0,4.151,3.365,7.515,7.515,7.515s7.515-3.364,7.515-7.515V215.922c0-10.914,3.201-21.551,9.018-30.614v78.708    c0,21.823,17.755,39.577,39.577,39.577h16.031c21.823,0,39.577-17.755,39.577-39.577v-78.775    c5.865,9.046,9.018,19.585,9.018,30.681v97.19c0,4.151,3.365,7.515,7.515,7.515s7.515-3.364,7.515-7.515v-97.19    C327.64,196.088,319.718,177.64,305.335,163.976z M253.807,127.331l-30.288,30.288    C224.603,141.408,237.597,128.416,253.807,127.331z M223.436,178.795c0.34-0.242,0.667-0.506,0.972-0.811l46.902-46.902    c5.69,3.044,10.374,7.728,13.419,13.418l-61.293,61.294V178.795z M288.564,264.016c0,13.536-11.013,24.548-24.548,24.548h-5.904    l30.452-30.452V264.016z M288.564,236.973c-0.279,0.209-0.551,0.434-0.805,0.687l-49.07,49.07    c-6.071-2.493-10.926-7.349-13.42-13.419l63.295-63.294V236.973z M288.564,188.879c-0.279,0.21-65.127,65.01-65.127,65.01v-27    c0.34-0.242,0.667-0.506,0.972-0.811l64.155-64.155V188.879z" data-original="#000000" class="active-path" data-old_color="#000000" fill="#FFFFFF"/>
	</g>
</g><g>
	<g>
		<path d="M473.662,276.193c-0.532-0.505-1.119-0.912-1.74-1.231v-2.931c0-26.242-21.351-47.593-47.593-47.593    c-26.242,0-47.593,21.351-47.593,47.593v3.006c-0.691,0.334-1.345,0.777-1.93,1.337c-14.263,13.648-22.117,32.033-22.117,51.767    v176.344c0,4.151,3.365,7.515,7.515,7.515c4.15,0,7.515-3.364,7.515-7.515V328.141c0-11.088,3.153-21.628,9.018-30.676v78.77    c0,21.823,17.755,39.577,39.577,39.577h16.031c21.823,0,39.577-17.755,39.577-39.577v-78.774    c5.865,9.046,9.018,19.584,9.018,30.68v176.344c0,4.151,3.365,7.515,7.515,7.515c4.15,0,7.515-3.364,7.515-7.515V328.141    C495.969,308.307,488.046,289.858,473.662,276.193z M456.006,264.508c-15.011-0.179-27.894-10.778-31.295-25.03    C439.907,239.654,452.628,250.288,456.006,264.508z M432.344,400.783h-16.031c-12.742,0-23.243-9.758-24.433-22.194    c14.638,8.644,31.195,13.177,48.48,13.177c3.861,0,7.71-0.234,11.525-0.693C447.397,396.967,440.309,400.783,432.344,400.783z     M456.892,375.032c-5.412,1.126-10.956,1.703-16.532,1.703c-17.7,0-34.496-5.623-48.575-16.261    c-0.007-0.005-0.014-0.009-0.02-0.014v-25.354c13.837,10.639,30.943,16.579,48.595,16.579c5.587,0,11.121-0.591,16.532-1.733    V375.032z M456.892,334.517c-5.369,1.417-10.915,2.14-16.532,2.14c-18.023,0-35.363-7.612-47.573-20.884    c-0.317-0.345-0.661-0.647-1.022-0.918v-37.732c10.564,20.564,31.963,34.484,56.611,34.484c2.855,0,5.701-0.197,8.517-0.574    V334.517z M456.892,295.826c-2.799,0.494-5.651,0.753-8.517,0.753c-25.934,0-47.162-20.171-48.519-45.996    c2.835-3.229,6.293-5.898,10.19-7.808c4.955,21.099,24.107,36.772,46.344,36.772c0.167,0,0.334-0.007,0.501-0.009V295.826z" data-original="#000000" class="active-path" data-old_color="#000000" fill="#FFFFFF"/>
	</g>
</g></g> </svg>
