<?xml version="1.0"?>
<svg xmlns="http://www.w3.org/2000/svg" id="Capa_1" enable-background="new 0 0 512 512" height="512px" viewBox="0 0 512 512" width="512px"><g><path d="m178.5 151.048v-123.548c0-15.164-12.337-27.5-27.5-27.5h-70c-15.163 0-27.5 12.336-27.5 27.5v123.548c-11.528 3.274-20 13.889-20 26.452 0 15.164 12.337 27.5 27.5 27.5h27.5v197c0 .318.026.63.065.937l-17.541 88.147c-1.027 5.159.297 10.45 3.634 14.517s8.268 6.399 13.529 6.399h55.627c5.261 0 10.192-2.333 13.529-6.399s4.661-9.358 3.634-14.516l-17.541-88.147c.038-.308.065-.619.065-.937v-101.34c0-4.142-3.357-7.5-7.5-7.5s-7.5 3.358-7.5 7.5v90.321c-3.978-1.411-8.198-2.157-12.5-2.157s-8.522.746-12.5 2.157v-185.982h25v66.652c0 4.142 3.357 7.5 7.5 7.5s7.5-3.358 7.5-7.5v-66.652h27.499c15.163 0 27.5-12.336 27.5-27.5 0-12.563-8.472-23.178-20-26.452zm-49.33 257.058 17.096 85.907c.2 1.009-.239 1.732-.52 2.073-.28.342-.903.915-1.933.915h-55.626c-1.029 0-1.652-.573-1.933-.915-.28-.341-.72-1.064-.52-2.073l17.096-85.906c3.813-2.774 8.41-4.281 13.17-4.281s9.357 1.506 13.17 4.28zm-48.17-393.106h70c6.893 0 12.5 5.607 12.5 12.5v122.5h-95v-122.5c0-6.893 5.607-12.5 12.5-12.5zm90 175h-110c-6.893 0-12.5-5.607-12.5-12.5s5.607-12.5 12.5-12.5h110c6.893 0 12.5 5.607 12.5 12.5s-5.607 12.5-12.5 12.5z" data-original="#000000" class="active-path" data-old_color="#000000" fill="#FFFFFF"/><path d="m433.245 194.421c-4.968-8.073-13.941-13.088-23.421-13.088h-6.324v-17.382c11.528-3.274 20-13.889 20-26.452 0-15.164-12.337-27.5-27.5-27.5h-110c-15.163 0-27.5 12.336-27.5 27.5 0 12.563 8.472 23.178 20 26.452v17.382h-6.324c-9.479 0-18.453 5.015-23.421 13.087-29.606 48.111-45.255 103.4-45.255 159.89v100.19c0 31.706 25.794 57.5 57.5 57.5h160c31.706 0 57.5-25.794 57.5-57.5v-100.19c0-56.49-15.649-111.779-45.255-159.889zm-139.745-29.421h53.299c4.143 0 7.5-3.358 7.5-7.5s-3.357-7.5-7.5-7.5h-60.799c-6.893 0-12.5-5.607-12.5-12.5s5.607-12.5 12.5-12.5h110c6.893 0 12.5 5.607 12.5 12.5s-5.607 12.5-12.5 12.5h-21.201c-4.143 0-7.5 3.358-7.5 7.5s3.357 7.5 7.5 7.5h13.701v16.333h-95zm170 289.5c0 23.435-19.065 42.5-42.5 42.5h-160c-23.435 0-42.5-19.065-42.5-42.5v-100.19c0-53.712 14.88-106.283 43.03-152.027 2.258-3.669 6.337-5.949 10.646-5.949h137.648c4.309 0 8.388 2.279 10.646 5.949 28.15 45.745 43.03 98.315 43.03 152.027z" data-original="#000000" class="active-path" data-old_color="#000000" fill="#FFFFFF"/><path d="m341 249.167c-53.762 0-97.5 43.738-97.5 97.5s43.738 97.5 97.5 97.5 97.5-43.738 97.5-97.5-43.738-97.5-97.5-97.5zm0 180c-45.49 0-82.5-37.009-82.5-82.5s37.01-82.5 82.5-82.5 82.5 37.009 82.5 82.5-37.01 82.5-82.5 82.5z" data-original="#000000" class="active-path" data-old_color="#000000" fill="#FFFFFF"/></g> </svg>
