<?xml version="1.0"?>
<svg xmlns="http://www.w3.org/2000/svg" height="512px" viewBox="0 0 57 61" width="512px" class=""><g><g id="008---Nail-Varnish" transform="translate(-1)"><path id="Shape" d="m4 61h13c1.6568542 0 3-1.3431458 3-3v-15.5c.0469956-3.3120268-1.4272003-6.4627518-4-8.549 0-6.076 0-4.767-.013-5.062.432-.493.2-.17 2.62-4 1.1800801-1.867301.6231484-4.3376783-1.244-5.518l3.206-5.071c2.665 1.685 2.841 1.913 3.6 1.913.6872973.0010411 1.3269836-.3508996 1.694-.932l3.206-5.071c1.1728264-1.81189475 1.282102-4.11409941.2861672-6.02893576-.9959348-1.91483636-2.9435917-3.14719994-5.1004581-3.22727211s-4.1905375 1.00448737-5.3257091 2.84020787l-3.208 5.072c-.2832582.44847917-.3767538.99111497-.2599182 1.5085299.1168356.517415.4344316.9672236.8829182 1.2504701l2.535 1.6-3.206 5.075c-.8966768-.5671066-1.9819237-.7547464-3.0169588-.5216337-1.0350352.2331126-1.9350582.8678787-2.5020412 1.7646337l-2.137 3.381c-.42511477.6726208-1.1000306 1.1488018-1.87625563 1.3237759-.77622504.1749742-1.59016636.0344065-2.26274437-.3907759-.30224669-.1906012-.68321869-.2054773-.99940752-.0390246s-.51955789.4889461-.53350001.846c-.01394213.357054.16366082.6944234.46590753.8850246l2.952 1.866c-.46830919.3956731-.74582196.9721577-.763 1.585v4.953c-2.57116355 2.0866563-4.04503903 5.2359597-4 8.547v15.5c0 1.6568542 1.34314575 3 3 3zm16.619-56.137c1.1951107-1.8312104 3.6392386-2.36333158 5.4874579-1.19469712 1.8482194 1.16863446 2.4154583 3.60485166 1.2735421 5.46969712l-3.2 5.072-6.769-4.275zm-10.911 19.13 2.138-3.381c.5899646-.9305145 1.8213824-1.2086342 2.754-.622l1.7 1.069c.9335742.5901608 1.2120401 1.8253495.622 2.759-2.128 3.364-2.183 3.553-2.674 4-.9887581.9109656-2.4672604 1.0411559-3.6.317l-3.387-2.135c1.01268011-.384298 1.87198341-1.0890883 2.447-2.007zm-.137 5.829c1.320383.8490727 2.9686556 1.0109599 4.429.435v12.743c0 1.1045695-.8954305 2-2 2h-3c-1.1045695 0-2-.8954305-2-2v-13.98c.14868471-.2048234.35467095-.3610529.592-.449zm-6.571 12.678c-.01975-2.0996436.68680363-4.1415835 2-5.78v6.28c0 2.209139 1.790861 4 4 4h3c2.209139 0 4-1.790861 4-4v-6.261c1.30877 1.6335087 2.0150386 3.6679153 2 5.761v15.5c0 .5522847-.4477153 1-1 1h-13c-.55228475 0-1-.4477153-1-1z" data-original="#000000" class="active-path" data-old_color="#000000" fill="#FFFFFF"/><path id="Shape" d="m6 55h9c.5522847 0 1-.4477153 1-1s-.4477153-1-1-1h-9c-.55228475 0-1 .4477153-1 1s.44771525 1 1 1z" data-original="#000000" class="active-path" data-old_color="#000000" fill="#FFFFFF"/><path id="Shape" d="m33.7 27.757c-3.948 7.536-11.281 24.609-6.756 31.9.5479365.8467091 1.4915168 1.3536004 2.5 1.343h24.112c1.0075126.0116934 1.9508834-.4931987 2.5-1.338 4.523-7.293-2.823-24.4-6.756-31.9 2.974-18.376 2.7-16.624 2.7-16.787-.025-2.416-3.7-4.975-10.5-4.975s-10.475 2.559-10.5 4.975c0 .181-.113-.593 2.7 16.782zm20.66 30.851c-.182909.2579088-.4841036.4054942-.8.392h-24.116c-.3158964.0134942-.617091-.1340912-.8-.392-3.772-6.079 2.556-21.708 6.661-29.608h12.395c4.1 7.9 10.428 23.529 6.658 29.608zm-12.86-50.608c5.841 0 8.388 2.053 8.5 2.942-1.08 6.62-.568 3.516-2.6 16.058h-7.532l-1.878-13.142c-.0507317-.3536929-.2863027-.6534536-.6179756-.7863651-.3316729-.1329116-.7090588-.0787815-.99.142-.2809412.2207814-.4227561.5746722-.3720244.9283651l1.837 12.858h-2.247l-2.6-16.058c.112-.889 2.659-2.942 8.5-2.942z" data-original="#000000" class="active-path" data-old_color="#000000" fill="#FFFFFF"/><path id="Shape" d="m40.22 46c-3.133 0-4.982-1.512-6.752-3.6-.217934-.3201326-.6011167-.4856497-.9835894-.4248651-.3824726.0607847-.695462.3369414-.8034106.7088651-1.41 4.3-2.877 10.134-1.893 13.589.1220689.4301537.5148613.7269937.962.727h21.5c.4459288-.0000703.8379236-.2953921.961-.724.622-2.169.4-5.439-.636-9.21-.2212166-1.1859454-.9432226-2.2188405-1.981-2.834-2.794-1.45-6.73 1.768-10.374 1.768zm9.453.007c.5237101.377411.8742003.9490737.973 1.587.752724 2.3916974 1.0246151 4.9087299.8 7.406h-19.886c-.317-2.176.216-5.728 1.507-10.054 1.8642523 1.9564011 4.4506126 3.0606573 7.153 3.054 3.795 0 7.82-2.837 9.453-1.993z" data-original="#000000" class="active-path" data-old_color="#000000" fill="#FFFFFF"/></g></g> </svg>
