<?xml version="1.0"?>
<svg xmlns="http://www.w3.org/2000/svg" height="512px" viewBox="-46 -21 682 682.66669" width="512px" class=""><g><path d="m151.050781 269.203125c-5.617187 0-10.164062 4.550781-10.164062 10.164063 0 2.800781-2.277344 5.078124-5.078125 5.078124-2.796875 0-5.078125-2.277343-5.078125-5.078124 0-5.613282-4.542969-10.164063-10.160157-10.164063-5.613281 0-10.15625 4.550781-10.15625 10.164063 0 14 11.386719 25.394531 25.394532 25.394531 14.011718 0 25.398437-11.394531 25.398437-25.394531 0-5.613282-4.542969-10.164063-10.15625-10.164063zm0 0" data-original="#000000" class="active-path" data-old_color="#000000" fill="#D97D86"/><path d="m425.332031 304.761719v-4.316407l65.390625-13.640624c.09375-.015626.164063-.085938.261719-.105469 10.214844 11.074219 24.800781 18.0625 41.015625 18.0625 30.800781 0 55.871094-25.066407 55.871094-55.875 0-30.804688-25.070313-55.871094-55.871094-55.871094-26.984375 0-49.5625 19.234375-54.75 44.71875l-53.484375 11.148437c-.546875-.929687-1.105469-1.867187-1.933594-2.589843-2.222656-1.925781-5.203125-2.8125-8.097656-2.378907l-29.039063 4.148438v-126.15625c0-1.492188-.355468-2.902344-1-4.179688-8.324218-66.273437-74.285156-117.726562-151.796874-117.726562h-89.9375c-57.449219 0-92.390626 37.515625-100.535157 72.375-1.351562 5.78125-1.996093 11.492188-2.101562 17.109375-.792969.460937-1.609375.882813-2.273438 1.578125-11.652343 12.140625-18.066406 28.09375-18.066406 44.917969v280.527343c0 5.609376 4.546875 10.15625 10.160156 10.15625h91.425781c2.035157 0 3.824219-.746093 5.410157-1.777343 14.183593 13.023437 29.742187 23.285156 45.734375 30.535156-.105469.574219-.347656 1.101563-.347656 1.710937v20.328126h-73.804688c-54.53125 0-98.894531 38.675781-98.894531 86.226562v66.152344c0 5.609375 4.542969 10.160156 10.160156 10.160156h426.664063c5.617187 0 10.15625-4.550781 10.15625-10.160156v-74.859375c0-42.746094-39.808594-77.519531-88.734376-77.519531h-83.960937v-20.320313c0-.378906-.175781-.699219-.214844-1.066406 22.621094-10.023438 43.9375-26.5 62.398438-49.074219.160156-.199219.199219-.445312.347656-.652344h39.054687c5.617188 0 10.15625-4.550781 10.15625-10.160156v-38.40625l88.839844 17.769531c8.183594 12.414063 22.203125 20.640625 38.148438 20.640625 25.207031 0 45.714844-20.507812 45.714844-45.714844 0-25.207031-20.507813-45.714843-45.714844-45.714843-15.546875 0-29.261719 7.832031-37.527344 19.726562l-54.289062-10.859375c3.207031-1.710937 5.464843-4.976562 5.464843-8.867187zm106.667969-91.425781c19.605469 0 35.554688 15.953124 35.554688 35.550781 0 19.605469-15.949219 35.558593-35.554688 35.558593-19.601562 0-35.554688-15.953124-35.554688-35.558593 0-19.597657 15.953126-35.550781 35.554688-35.550781zm-55.371094 55.65625-51.296875 10.699218v-10.378906l49.226563-10.257812zm-244.308594 25.613281v-4.253907l172.695313-24.671874v28.925781zm0 20.316406h30.472657v71.109375h-30.472657zm-171.113281-237.929687c6.378907-27.296876 34.375-56.675782 80.753907-56.675782h89.9375c68.417968 0 126.363281 45.054688 131.933593 102.570313.082031.816406.269531 1.601562.546875 2.339843v125.734376l-40.632812 5.804687v-73.910156c0-5.609375-4.542969-10.15625-10.15625-10.15625-5.617188 0-10.164063 4.546875-10.164063 10.15625v76.816406l-20.316406 2.902344v-8.605469c0-5.609375-4.539063-10.160156-10.15625-10.160156-5.613281 0-10.160156 4.550781-10.160156 10.160156v11.503906l-30.472657 4.355469v-25.179687c0-50.875-41.394531-92.265626-92.277343-92.265626h-15.117188c-8.808593 0-18.007812-2.339843-27.328125-6.949218-29.410156-14.542969-43.007812-40.128906-36.390625-68.441406zm-21.90625 58.988281c0-6.800781 1.695313-13.316407 4.582031-19.292969 3.429688 9.273438 8.699219 17.914062 15.734376 25.585938v132.015624c0 51.75 19.917968 97.828126 48.785156 132.058594h-69.101563zm69.125 483.691406c10.75-18.453125 30.835938-30.476563 52.78125-30.476563 21.902344 0 41.980469 11.996094 52.726563 30.394532zm132.066407 0c10.742187-18.453125 30.835937-30.476563 52.777343-30.476563 21.90625 0 41.984375 11.996094 52.730469 30.394532zm22.300781-121.894531h94.121093c37.722657 0 68.417969 25.660156 68.417969 57.203125v64.703125h-56.992187c-12.308594-30.1875-42.011719-50.808594-75.070313-50.808594-26.535156 0-51.015625 13.234375-66.023437 34.058594-15.011719-20.824219-39.507813-34.058594-66.039063-34.058594-33.0625 0-62.75 20.617188-75.066406 50.808594h-67.15625v-55.996094c0-36.339844 35.25-65.910156 78.578125-65.910156h83.960938c5.613281 0 10.160156-4.550782 10.160156-10.160156v-24.769532c10.21875 2.855469 20.453125 4.453125 30.472656 4.453125 10.253906 0 20.457031-1.339843 30.480469-3.945312v24.261719c0 5.609374 4.539062 10.160156 10.15625 10.160156zm-40.636719-50.792969c-78.777344 0-142.21875-94.476563-142.21875-172.695313v-115.476562c2.773438 1.699219 5.625 3.335938 8.652344 4.835938 12.160156 6.003906 24.382812 9.050781 36.335937 9.050781h15.117188c39.671875 0 71.957031 32.277343 71.957031 71.953125v28.082031l-11.59375 1.65625c-5 .710937-8.722656 5-8.722656 10.054687v20.316407c0 5.609375 4.542968 10.160156 10.15625 10.160156h10.160156v81.269531c0 5.609375 4.542969 10.15625 10.15625 10.15625h86.324219c-25.71875 26.3125-55.902344 40.636719-86.324219 40.636719zm142.222656-60.953125h-40.632812v-30.476562c0-5.609376-4.542969-10.160157-10.15625-10.160157-5.617188 0-10.164063 4.550781-10.164063 10.160157v30.476562h-20.316406v-71.109375h20.316406v10.15625c0 5.609375 4.546875 10.160156 10.164063 10.160156 5.613281 0 10.15625-4.550781 10.15625-10.160156v-10.15625h40.632812zm147.304688-60.953125c14.007812 0 25.394531 11.398437 25.394531 25.398437 0 14.007813-11.386719 25.398438-25.394531 25.398438-14.007813 0-25.398438-11.390625-25.398438-25.398438 0-14 11.390625-25.398437 25.398438-25.398437zm-45.71875 28.246094-81.269532-16.253907v-9.761718l81.269532 16.253906zm0 0" data-original="#000000" class="active-path" data-old_color="#000000" fill="#D97D86"/></g> </svg>
