<?xml version="1.0"?>
<svg xmlns="http://www.w3.org/2000/svg" height="512px" viewBox="0 0 60 61" width="512px"><g><g id="040---Dove" transform="translate(-1)"><path id="Shape" d="m43 18c-.5522847 0-1 .4477153-1 1v1c0 .5522847.4477153 1 1 1s1-.4477153 1-1v-1c0-.5522847-.4477153-1-1-1z" data-original="#000000" class="active-path" data-old_color="#000000" fill="#FFFFFF"/><path id="Shape" d="m61 7.67c.0624811-2.8689569-1.5283806-5.51876267-4.0899186-6.81233937-2.561538-1.29357669-5.6383341-1.00093813-7.9100814.75233937-1.3033192-1.0413518-2.9217513-1.60903714-4.59-1.61-6.57 0-10.06 8.11-5 13.32l.48.49c-1.122632.5596321-2.1090757 1.3583443-2.89 2.34-2.46-3.44-5.17-6.8-9.69-8.63-4.37-1.75-8.47-1.3-12.31-.69-1.937349.27297005-3.8654073-.55609503-5-2.15-.3386894-.48823936-.92267217-.74516831-1.51144842-.66497657-.58877625.08019175-1.08277398.48394242-1.27855158 1.04497657l-.64 1.74c-1.32237977 3.4852954-1.76210554 7.2435765-1.28 10.94-.64256223-.15752-1.24533082-.4469851-1.77-.85-.4795873-.3549811-1.11824333-.4095169-1.65107313-.1409876-.53282981.2685293-.86894174.8143172-.86892687 1.4109876-.1193481 2.6858435.11601419 5.3756982.7 8-.00433608.019765-.00433608.040235 0 .06.61211551 2.6358715 1.78545139 5.1087451 3.44 7.25 3.55 4.44 8.88 6.46 14.57 7.1l-7.18 6.69c-1.0260559.9465779-1.6096645 2.2790055-1.6096645 3.675s.5836086 2.7284221 1.6096645 3.675l4.45 4.06c1.0418133.9906558 2.4596329 1.4849439 3.891528 1.3566859 1.4318952-.128258 2.7393009-.8666505 3.588472-2.0266859l5.05-7c2.8645813-.0690517 5.6703831-.8270984 8.18-2.21.85 2 1.08 1.94 9.27 10.38.5266491.537509 1.2474875.8404082 2 .8404082s1.4733509-.3028992 2-.8404082l7.82-8.07c1.4302864-1.444324 2.2287562-3.3973381 2.22-5.43.0583271-2.8672419-1.5321438-5.514083-4.0912145-6.8085463s-5.6336329-1.0073514-7.9087855.7385463c-.8173102-.6389297-1.7617372-1.0958005-2.77-1.34 2-6.56-1.47-6.67 5.89-13.66.7240385-.7462354 1.6254551-1.2967189 2.62-1.6.7932775-.2975435 1.3130036-1.0626398 1.297275-1.9097372s-.5634987-1.5923728-1.367275-1.8602628l-1.36-.46 5.52-5.69c1.4006846-1.4516548 2.1792918-3.39279086 2.17-5.41zm-52.19-1.24c1.6277158 1.84970291 4.0834416 2.74611814 6.52 2.38 4.44-.71 7.7-.84 11.2.57 4.28 1.73 6.86 5.18 9.29 8.61-.4376371.9230519-.7149321 1.9138741-.82 2.93-4.24-3.16-8.06-6.2-13.42-6.77-3.6881556-.3797483-7.4074559.3147989-10.71 2-1.14447489.6371213-2.35065472 1.1564487-3.6 1.55-.65-4.09.27-7.65 1.54-11.27zm40.89 35.21c1.0036884-1.0461611 2.3902274-1.6383287 3.84-1.64 4.88 0 7.27 6.15 3.85 9.68l-7.83 8.07c-.1537938.1538853-.362438.2403449-.58.2403449s-.4262062-.0864596-.58-.2403449l-7.58-7.81c-3.77-3.88-1.27-9.94 3.59-9.94 1.4536101.0016559 2.8451651.5892815 3.86 1.63.1867915.1937346.4437851.3040042.7128959.3058861s.5276214-.1047828.7171041-.2958861zm1.3-18.8c-2 1.91-4.26 4-5.34 6.64-1.28 3.07-.12 4.32-1.53 8.55-2.1526196.0799652-4.1652586 1.0877504-5.5188516 2.7634448s-1.9156257 3.8552508-1.5411484 5.9765552c-2.4383547 1.4605746-5.2276682 2.2313515-8.07 2.23h-.13c-.9053257-.0000131-1.8088662-.0803278-2.7-.24-.5522847-.0938884-1.0761116.2777153-1.17.83s.2777153 1.0761116.83 1.17c.42.08.85.13 1.27.17l-4.26 5.88c-.5022364.6776705-1.2665565 1.1126008-2.1056911 1.1982268-.8391347.085626-1.6755487-.1859641-2.3043089-.7482268l-4.43-4.1c-.6156336-.5679468-.9657987-1.3674033-.9657987-2.205s.3501651-1.6370532.9657987-2.205l8.51-7.92c1.5437654.0755308 3.0909354.0421146 4.63-.1.3572656-.0321539.6702387-.2524642.8210255-.5779423.1507867-.325478.1164789-.7066759-.09-1-.206479-.2933241-.5537599-.4542116-.9110255-.4220577-3.6906595.3109008-7.4073286.0101885-11-.89 2.2033094-1.3845884 4.6447685-2.3476084 7.2-2.84.5522847-.0883656.9283655-.6077153.84-1.16-.0883656-.5522847-.6077153-.9283655-1.16-.84-3.3767835.6269017-6.565029 2.0191935-9.32 4.07-2.2765518-.8628381-4.3279372-2.2304283-6-4 3.5767091-2.0732171 7.5120198-3.4539683 11.6-4.07.2660282-.029982.5089266-.1653802.6743251-.3758874s.2394846-.4785437.2056749-.7441126c-.029982-.2660282-.1653802-.5089266-.3758874-.6743251s-.4785437-.2394846-.7441126-.2056749c-4.4885412.6475886-8.8027576 2.1842519-12.69 4.52-1.05658819-1.5226638-1.84776745-3.2132178-2.34-5 5.92-3.07 14-2.52 14.08-2.52.2653698.0192293.5274621-.0680874.728277-.2426275.200815-.1745401.3237942-.4219117.341723-.6873725.0192293-.2653698-.0680874-.5274621-.2426275-.728277-.1745401-.200815-.4219117-.3237942-.6873725-.341723-.35 0-8.33-.57-14.68 2.53-.31382837-1.8459364-.4444632-3.7183689-.39-5.59 3.11 1.84 5.72.54 8.81-1 2.9624867-1.4928325 6.2891236-2.1102896 9.59-1.78 5.36.58 9.19 4 14 7.54 3.18 2.3 3.16 2.3 3.6 2.3.4323529-.0027678.8139619-.283083.9459003-.694822.1319385-.411739-.0156784-.8616404-.3659003-1.115178l-2.58-1.85v-.59c-.002882-1.1672018.2895198-2.3161688.85-3.34 1.1413239-2.1340549 3.3827159-3.4480899 5.8023557-3.4016801s4.6089941 1.4454287 5.6676443 3.6216801c.35207.684085.9535048 1.2067605 1.68 1.46l3 1.05c-1.103297.3610823-2.1232814.9390735-3 1.7zm.3-4.84c-.0733021-.0613603-.13437-.1359989-.18-.22-1.6693371-3.4032303-5.3862975-5.2943154-9.12-4.64l-1.18-1.14c-3.82-4-1.25-10 3.59-10 1.4536101.00165587 2.8451651.58928145 3.86 1.63.1881405.19241273.4458913.30087555.715.30087555s.5268595-.10846282.715-.30087555c1.0022135-1.05222494 2.3918623-1.64775001 3.845-1.64775001s2.8427865.59552507 3.845 1.64775001c2.1333333 2.24 2.1333333 5.76 0 8z" data-original="#000000" class="active-path" data-old_color="#000000" fill="#FFFFFF"/><path id="Shape" d="m43.11 45.51c.2815765-.4749776.1248931-1.088281-.35-1.37-1.49-.88-2.82 2.32-.53 4.57l4.07 4c.2554449.2500859.624905.3448966.9692082.2487178s.6111417-.3687353.7-.715-.0137633-.7136319-.2692082-.9637178l-4.07-4c-.5130534-.4320393-.7178425-1.1291099-.52-1.77z" data-original="#000000" class="active-path" data-old_color="#000000" fill="#FFFFFF"/></g></g> </svg>
