<?xml version="1.0"?>
<svg xmlns="http://www.w3.org/2000/svg" xmlns:xlink="http://www.w3.org/1999/xlink" version="1.1" id="Capa_1" x="0px" y="0px" viewBox="0 0 496 496" style="enable-background:new 0 0 496 496;" xml:space="preserve" width="512px" height="512px" class=""><g><g>
	<g>
		<g>
			<path d="M166.176,219.164c5.176,1.224,10.28,2.712,15.168,4.44l5.312-15.096c-5.424-1.912-11.08-3.56-16.816-4.912     L166.176,219.164z" data-original="#000000" class="active-path" data-old_color="#000000" fill="#FFFFFF"/>
			<path d="M496,270.828c0-22.056-17.944-40-40-40h-16c-22.056,0-40,17.944-40,40c0,9.04,3.128,17.296,8.208,24H375.8     c5.072-6.704,8.2-14.96,8.2-24c0-22.056-17.944-40-40-40h-16c-22.056,0-40,17.944-40,40c0,9.16,3.216,17.512,8.424,24.264     c-16.4,0.512-32.728,2.48-48.776,5.888c0.112-2.048,0.352-4.088,0.352-6.152c0-2.04-0.12-4.04-0.232-6.048     c5.008-4.408,8.232-10.776,8.232-17.952v-14.056c0-18.592-5.664-36.28-16.064-51.224c-0.696-47.928-39.848-86.72-87.936-86.72     c-2.664,0-5.288,0.288-7.92,0.528c-15.736-10.64-35.552-16.528-56.08-16.528c-48.52,0-88,32.304-88,72     c0,10.984,3.208,21.712,9.016,31.48C3.208,217.26,0,229.58,0,242.292c0,20.536,8,39.848,22.52,54.368l1.656,1.656     C26.04,358.452,75.416,406.828,136,406.828c17.976,0,35.856-4.36,51.696-12.624l-7.392-14.184     c-13.568,7.072-28.888,10.808-44.304,10.808c-37.464,0-69.896-21.624-85.704-53l18.392-11.496     c25.408-15.888,47.136-37.56,63.248-62.824c3.848,0.608,7.624,1.648,11.2,3.24l39.688,17.648     c15.584,6.92,32.128,10.432,49.176,10.432c0,5.624-0.648,11.184-1.608,16.672c-2.232-0.4-4.504-0.672-6.824-0.672h-0.864     c-21.344,0-38.704,17.36-38.704,38.704c0,7.672,2.248,15.104,6.496,21.472l34.56,51.824H124c-19.848,0-36,16.152-36,36     c0,19.848,16.152,36,36,36h159.16c24.72,0,44.84-20.12,44.84-44.84c0-8.872-2.6-17.48-7.528-24.88l-64.696-97.04     c-2.736-4.096-6.168-7.56-10.08-10.288c19.424-4.56,39.336-6.952,59.288-6.952H328h16h96h16h24v168H328v16h168v-200h-8.208     C492.872,288.124,496,279.868,496,270.828z M88,118.828c11.368,0,22.432,2.104,32.4,6.032     c-17.704,6.848-32.984,19.312-43.208,35.848c-16.128,2.928-31.432,9.312-44.992,19c-4.768,3.4-9.032,7.344-12.84,11.648     C17.232,186.02,16,180.46,16,174.828C16,143.948,48.296,118.828,88,118.828z M60.2,312.764L44.176,322.78     c-2.248-7.368-3.536-15.136-3.936-23.128l64.032-32.016c2.376-1.184,4.864-2.088,7.4-2.832     C97.728,283.836,80.216,300.26,60.2,312.764z M189.32,269.772l-39.688-17.64c-16.584-7.376-36.256-6.936-52.512,1.192     l-63.536,31.768c-5.504-5.568-9.784-12.032-12.752-19.04C35.176,235.884,79.2,214.828,128,214.828     c7.72,0,15.44,0.512,22.928,1.528l2.144-15.848c-8.2-1.12-16.632-1.68-25.072-1.68c-47.392,0-89.768,17.632-111.92,45.168     c-0.016-0.576-0.08-1.136-0.08-1.704c0-19.624,9.528-38.152,25.504-49.56c16.384-11.712,35.704-17.904,55.856-17.904H120v-16     H98.552c13.52-15,32.88-24,53.448-24c32.272,0,59.648,21.344,68.768,50.648c-15.632-12.04-34.64-18.648-54.704-18.648H160v16     h6.064c19.752,0,38.312,7.688,52.28,21.656S240,237.02,240,256.772v14.056c0,4.408-3.584,8-8,8     C217.2,278.828,202.84,275.78,189.32,269.772z M307.16,433.98c3.16,4.76,4.84,10.296,4.84,16.008     c0,15.904-12.936,28.84-28.84,28.84H124c-11.032,0-20-8.976-20-20s8.968-20,20-20h130.944l-51.136-76.704     c-2.488-3.736-3.808-8.088-3.808-12.592c0-12.52,10.184-22.704,22.704-22.704h0.864c7.608,0,14.672,3.776,18.888,10.112     L307.16,433.98z M344,294.828h-16c-13.232,0-24-10.768-24-24s10.768-24,24-24h16c13.232,0,24,10.768,24,24     S357.232,294.828,344,294.828z M456,294.828h-16c-13.232,0-24-10.768-24-24s10.768-24,24-24h16c13.232,0,24,10.768,24,24     S469.232,294.828,456,294.828z" data-original="#000000" class="active-path" data-old_color="#000000" fill="#FFFFFF"/>
			<path d="M296,176.956c0,16.2,7.744,31.68,20.704,41.4l14.496,10.872l9.592-12.8l-14.496-10.872     c-8.952-6.72-14.296-17.408-14.296-28.6c0-9.552,3.72-18.528,10.472-25.28c8.72-8.728,13.528-20.328,13.528-32.848     c0-12.456-4.848-24.168-13.656-32.968l-12.688-12.688l-11.312,11.312l12.688,12.688c5.784,5.784,8.968,13.48,8.968,21.84     c0,8.064-3.144,15.64-8.84,21.344C301.384,150.132,296,163.132,296,176.956z" data-original="#000000" class="active-path" data-old_color="#000000" fill="#FFFFFF"/>
			<path d="M424,168.956c0,16.2,7.744,31.68,20.704,41.4l14.496,10.872l9.592-12.8l-14.496-10.872     c-8.952-6.72-14.296-17.408-14.296-28.6c0-9.552,3.72-18.528,10.472-25.28c8.72-8.728,13.528-20.328,13.528-32.848     c0-12.456-4.848-24.168-13.656-32.968l-12.688-12.688l-11.312,11.312l12.688,12.688c5.784,5.784,8.968,13.48,8.968,21.84     c0,8.064-3.144,15.64-8.84,21.344C429.384,142.132,424,155.132,424,168.956z" data-original="#000000" class="active-path" data-old_color="#000000" fill="#FFFFFF"/>
			<path d="M380.704,146.348l14.496,10.88l9.592-12.8l-14.496-10.872c-8.952-6.72-14.296-17.408-14.296-28.6h-16     C360,121.156,367.744,136.636,380.704,146.348z" data-original="#000000" class="active-path" data-old_color="#000000" fill="#FFFFFF"/>
			<path d="M384,47.012c0,8.064-3.144,15.64-8.84,21.344c-4.4,4.4-7.936,9.504-10.504,15.168l14.56,6.616     c1.784-3.904,4.216-7.432,7.256-10.464C395.192,70.948,400,59.348,400,46.828c0-12.456-4.848-24.168-13.656-32.968L373.656,1.172     l-11.312,11.312l12.688,12.688C380.816,30.956,384,38.652,384,47.012z" data-original="#000000" class="active-path" data-old_color="#000000" fill="#FFFFFF"/>
		</g>
	</g>
</g></g> </svg>
